Coordinates
version=1
nRows=7
nColumns=40
inDegrees=yes

Units are S.I. units (second, meters, Newtons, ...)
Angles are in degrees.

endheader
time	pelvis_tilt	pelvis_list	pelvis_rotation	pelvis_tx	pelvis_ty	pelvis_tz	hip_flexion_r	hip_adduction_r	hip_rotation_r	knee_angle_r	knee_angle_r_beta	ankle_angle_r	subtalar_angle_r	mtp_angle_r	hip_flexion_l	hip_adduction_l	hip_rotation_l	knee_angle_l	knee_angle_l_beta	ankle_angle_l	subtalar_angle_l	mtp_angle_l	lumbar_extension	lumbar_bending	lumbar_rotation	arm_flex_r	arm_add_r	arm_rot_r	elbow_flex_r	pro_sup_r	wrist_flex_r	wrist_dev_r	arm_flex_l	arm_add_l	arm_rot_l	elbow_flex_l	pro_sup_l	wrist_flex_l	wrist_dev_l
     22.71500000	     -5.38707218	     -5.85001307	      4.30217397	      1.04609994	      0.93070525	      0.50937795	     10.91493463	      4.28088787	    -18.63449175	     13.11195881	     13.11195881	      9.87269802	      3.18870213	     -4.33581382	     42.28756503	    -10.94413397	      3.59956338	     56.75755505	     56.75755505	      9.95129896	    -18.69157988	     15.25677261	    -13.22888406	      5.69764930	      5.83280822	     23.85989686	    -17.85939715	      0.41085402	     52.58327978	     45.32116734	      0.00000000	      0.00000000	      0.33745597	     -7.93462046	     -1.71321583	     41.48625716	     47.09642850	      0.00000000	      0.00000000
     22.72657143	     -5.42099789	     -5.94757634	      4.48369990	      1.04483951	      0.93062216	      0.50959130	     10.12469937	      4.53371279	    -18.86021505	     12.41972989	     12.41972989	      9.96706996	      3.61684485	     -4.78034698	     42.74523378	    -10.84315698	      3.58050743	     53.80791576	     53.80791576	      9.34727929	    -18.57083383	     14.79233486	    -13.17988176	      5.75846936	      6.33048427	     25.34618153	    -18.76558065	      1.39342389	     56.26242889	     45.17167673	      0.00000000	      0.00000000	      0.41532223	     -7.53872012	     -1.73907638	     36.21855137	     47.01298551	      0.00000000	      0.00000000
     22.73814286	     -5.56209497	     -6.01320029	      4.57683514	      1.04354884	      0.93025796	      0.50974904	      9.60034958	      4.71503172	    -18.87424282	     12.03525754	     12.03525754	     10.25743695	      3.74662250	     -4.86094981	     43.18821424	    -10.70571222	      3.55727712	     50.75417786	     50.75417786	      9.02589078	    -18.24988629	     15.23420125	    -13.00868818	      5.71960390	      6.71841342	     27.63733140	    -19.09235366	      1.10938615	     57.59827920	     45.14916135	      0.00000000	      0.00000000	     -1.05300326	     -7.52823028	     -1.67774540	     35.25246182	     46.97703148	      0.00000000	      0.00000000
     22.74971429	     -5.43493963	     -6.14082202	      4.76217896	      1.04273530	      0.93025551	      0.50982300	      8.44427120	      5.07544263	    -19.12585321	     11.02825202	     11.02825202	     10.40726404	      4.38250358	     -4.93036471	     43.12528231	    -10.52380500	      3.80734803	     47.45442184	     47.45442184	      8.57590360	    -17.99056926	     15.12796468	    -13.09803918	      5.78911973	      5.86223241	     30.01155050	    -18.21241803	      1.40837973	     60.89347985	     45.03916526	      0.00000000	      0.00000000	     -2.57443727	     -7.76796296	     -1.46702203	     32.78375652	     46.90448573	      0.00000000	      0.00000000
     22.76128571	     -5.46742508	     -6.25163563	      4.82092481	      1.04185148	      0.92982909	      0.50980044	      7.59810457	      5.33505212	    -19.37507157	     10.29701114	     10.29701114	     10.54483486	      5.14438154	     -5.41719113	     43.03209350	    -10.43575329	      3.87010457	     43.94902804	     43.94902804	      7.50152718	    -17.51509805	     13.30642069	    -13.13882347	      5.87725947	      6.63495222	     31.15189042	    -19.32198917	      2.31302176	     65.38662887	     44.88596954	      0.00000000	      0.00000000	     -2.90970627	     -7.63218131	     -1.12739421	     29.51569273	     46.78323469	      0.00000000	      0.00000000
     22.77285714	     -5.49145727	     -6.34536446	      4.84572473	      1.04112339	      0.92934554	      0.50979288	      6.74213329	      5.60605139	    -19.38446120	      9.58614401	      9.58614401	     10.81630405	      5.56225530	     -5.46928239	     42.85239443	    -10.33730750	      3.96986164	     40.56032618	     40.56032618	      7.27602695	    -16.59900249	     13.56697920	    -13.06591409	      5.88276008	      6.55278509	     33.38577802	    -18.88022121	      2.14146668	     67.45341561	     44.83803426	      0.00000000	      0.00000000	     -4.49118603	     -7.79340966	     -1.00474065	     28.53074084	     46.72591470	      0.00000000	      0.00000000
     22.78442857	     -5.53861762	     -6.49675784	      4.84457282	      1.04059063	      0.92864661	      0.50963875	      5.89039189	      5.92405403	    -19.43312513	      8.86002572	      8.86002572	     11.07442506	      6.14325088	     -5.56208629	     42.60345033	    -10.30696947	      4.10494111	     37.25333032	     37.25333032	      7.11860881	    -15.33481774	     13.69760920	    -12.96739467	      5.97372750	      6.55062818	     35.55494608	    -18.55656248	      2.14824542	     69.74628850	     44.77593552	      0.00000000	      0.00000000	     -6.01364464	     -7.88277216	     -0.85157927	     27.68259154	     46.66490642	      0.00000000	      0.00000000
